<svg width="75" height="72" viewBox="0 0 75 72" fill="none" xmlns="http://www.w3.org/2000/svg">
<rect width="75" height="72" rx="10" fill="#2E3135"/>
<path d="M28.4924 19.16V26.648H19.4684V53H10.0604V26.648H1.13241V19.16H28.4924Z" fill="#1E90FF"/>
<path d="M33.8152 53.24C32.7752 53.24 31.9352 52.96 31.2952 52.4C30.6752 51.82 30.3652 51.09 30.3652 50.21C30.3652 49.33 30.6752 48.6 31.2952 48.02C31.9352 47.44 32.7752 47.15 33.8152 47.15C34.8352 47.15 35.6552 47.44 36.2752 48.02C36.9152 48.6 37.2352 49.33 37.2352 50.21C37.2352 51.07 36.9152 51.79 36.2752 52.37C35.6552 52.95 34.8352 53.24 33.8152 53.24Z" fill="url(#paint0_linear)"/>
<path d="M39.8446 36.008C39.8446 32.68 40.5326 29.72 41.9086 27.128C43.3166 24.504 45.3006 22.472 47.8606 21.032C50.4206 19.56 53.3646 18.824 56.6926 18.824C60.9166 18.824 64.4686 19.96 67.3486 22.232C70.2286 24.472 72.0846 27.528 72.9166 31.4H62.7886C62.1806 30.12 61.3326 29.144 60.2446 28.472C59.1886 27.8 57.9566 27.464 56.5486 27.464C54.3726 27.464 52.6286 28.248 51.3166 29.816C50.0366 31.352 49.3966 33.416 49.3966 36.008C49.3966 38.632 50.0366 40.728 51.3166 42.296C52.6286 43.832 54.3726 44.6 56.5486 44.6C57.9566 44.6 59.1886 44.264 60.2446 43.592C61.3326 42.92 62.1806 41.944 62.7886 40.664H72.9166C72.0846 44.536 70.2286 47.608 67.3486 49.88C64.4686 52.12 60.9166 53.24 56.6926 53.24C53.3646 53.24 50.4206 52.52 47.8606 51.08C45.3006 49.608 43.3166 47.576 41.9086 44.984C40.5326 42.36 39.8446 39.368 39.8446 36.008Z" fill="#F4F9FF"/>
<defs>
<linearGradient id="paint0_linear" x1="37.5" y1="0" x2="37.5" y2="72" gradientUnits="userSpaceOnUse">
<stop stop-color="#1E90FF"/>
<stop offset="1" stop-color="#F4F9FF"/>
</linearGradient>
</defs>
</svg>
