<svg width="233" height="54" viewBox="0 0 233 54" fill="none" xmlns="http://www.w3.org/2000/svg">
<path d="M20.755 0.619998V6.236H13.987V26H6.93105V6.236H0.235047V0.619998H20.755ZM36.2176 26L31.1776 16.64H30.4216V26H23.3656V0.619998H34.4896C36.5296 0.619998 38.2576 0.979999 39.6736 1.7C41.0896 2.396 42.1576 3.368 42.8776 4.616C43.5976 5.84 43.9576 7.22 43.9576 8.756C43.9576 10.484 43.4776 12.008 42.5176 13.328C41.5816 14.624 40.2016 15.548 38.3776 16.1L44.1016 26H36.2176ZM30.4216 11.816H33.9136C34.8736 11.816 35.5936 11.588 36.0736 11.132C36.5536 10.676 36.7936 10.016 36.7936 9.152C36.7936 8.336 36.5416 7.7 36.0376 7.244C35.5576 6.764 34.8496 6.524 33.9136 6.524H30.4216V11.816ZM63.2224 21.86H54.2224L52.8544 26H45.4384L54.6904 0.619998H62.8264L72.0424 26H64.5904L63.2224 21.86ZM61.4584 16.46L58.7224 8.252L56.0224 16.46H61.4584ZM81.3982 0.619998V26H74.3422V0.619998H81.3982ZM92.4724 20.6H100.356V26H85.4164V0.619998H92.4724V20.6Z" fill="#1E90FF"/>
<path d="M110.156 6.272V10.412H118.256V15.776H110.156V20.348H119.336V26H103.1V0.619998H119.336V6.272H110.156ZM135.675 26L130.635 16.64H129.879V26H122.823V0.619998H133.947C135.987 0.619998 137.715 0.979999 139.131 1.7C140.547 2.396 141.615 3.368 142.335 4.616C143.055 5.84 143.415 7.22 143.415 8.756C143.415 10.484 142.935 12.008 141.975 13.328C141.039 14.624 139.659 15.548 137.835 16.1L143.559 26H135.675ZM129.879 11.816H133.371C134.331 11.816 135.051 11.588 135.531 11.132C136.011 10.676 136.251 10.016 136.251 9.152C136.251 8.336 135.999 7.7 135.495 7.244C135.015 6.764 134.307 6.524 133.371 6.524H129.879V11.816ZM156.199 26.252C153.247 26.252 150.823 25.556 148.927 24.164C147.031 22.748 146.011 20.732 145.867 18.116H153.391C153.463 19.004 153.727 19.652 154.183 20.06C154.639 20.468 155.227 20.672 155.947 20.672C156.595 20.672 157.123 20.516 157.531 20.204C157.963 19.868 158.179 19.412 158.179 18.836C158.179 18.092 157.831 17.516 157.135 17.108C156.439 16.7 155.311 16.244 153.751 15.74C152.095 15.188 150.751 14.66 149.719 14.156C148.711 13.628 147.823 12.872 147.055 11.888C146.311 10.88 145.939 9.572 145.939 7.964C145.939 6.332 146.347 4.94 147.163 3.788C147.979 2.612 149.107 1.724 150.547 1.124C151.987 0.523999 153.619 0.223999 155.443 0.223999C158.395 0.223999 160.747 0.919999 162.499 2.312C164.275 3.68 165.223 5.612 165.343 8.108H157.675C157.651 7.34 157.411 6.764 156.955 6.38C156.523 5.996 155.959 5.804 155.263 5.804C154.735 5.804 154.303 5.96 153.967 6.272C153.631 6.584 153.463 7.028 153.463 7.604C153.463 8.084 153.643 8.504 154.003 8.864C154.387 9.2 154.855 9.5 155.407 9.764C155.959 10.004 156.775 10.316 157.855 10.7C159.463 11.252 160.783 11.804 161.815 12.356C162.871 12.884 163.771 13.64 164.515 14.624C165.283 15.584 165.667 16.808 165.667 18.296C165.667 19.808 165.283 21.164 164.515 22.364C163.771 23.564 162.679 24.512 161.239 25.208C159.823 25.904 158.143 26.252 156.199 26.252ZM172.368 26.288C171.12 26.288 170.112 25.952 169.344 25.28C168.6 24.584 168.228 23.708 168.228 22.652C168.228 21.596 168.6 20.72 169.344 20.024C170.112 19.328 171.12 18.98 172.368 18.98C173.592 18.98 174.576 19.328 175.32 20.024C176.088 20.72 176.472 21.596 176.472 22.652C176.472 23.684 176.088 24.548 175.32 25.244C174.576 25.94 173.592 26.288 172.368 26.288ZM178.912 13.256C178.912 10.76 179.428 8.54 180.46 6.596C181.516 4.628 183.004 3.104 184.924 2.024C186.844 0.92 189.052 0.368 191.548 0.368C194.716 0.368 197.38 1.22 199.54 2.924C201.7 4.604 203.092 6.896 203.716 9.8H196.12C195.664 8.84 195.028 8.108 194.212 7.604C193.42 7.1 192.496 6.848 191.44 6.848C189.808 6.848 188.5 7.436 187.516 8.612C186.556 9.764 186.076 11.312 186.076 13.256C186.076 15.224 186.556 16.796 187.516 17.972C188.5 19.124 189.808 19.7 191.44 19.7C192.496 19.7 193.42 19.448 194.212 18.944C195.028 18.44 195.664 17.708 196.12 16.748H203.716C203.092 19.652 201.7 21.956 199.54 23.66C197.38 25.34 194.716 26.18 191.548 26.18C189.052 26.18 186.844 25.64 184.924 24.56C183.004 23.456 181.516 21.932 180.46 19.988C179.428 18.02 178.912 15.776 178.912 13.256ZM219.225 26.252C216.849 26.252 214.665 25.7 212.673 24.596C210.681 23.468 209.097 21.92 207.921 19.952C206.769 17.96 206.193 15.716 206.193 13.22C206.193 10.724 206.769 8.492 207.921 6.524C209.097 4.532 210.681 2.984 212.673 1.88C214.665 0.775999 216.849 0.223999 219.225 0.223999C221.625 0.223999 223.809 0.775999 225.777 1.88C227.769 2.984 229.341 4.532 230.493 6.524C231.645 8.492 232.221 10.724 232.221 13.22C232.221 15.716 231.645 17.96 230.493 19.952C229.341 21.92 227.769 23.468 225.777 24.596C223.785 25.7 221.601 26.252 219.225 26.252ZM219.225 19.7C221.025 19.7 222.441 19.112 223.473 17.936C224.529 16.76 225.057 15.188 225.057 13.22C225.057 11.204 224.529 9.62 223.473 8.468C222.441 7.292 221.025 6.704 219.225 6.704C217.401 6.704 215.973 7.292 214.941 8.468C213.909 9.62 213.393 11.204 213.393 13.22C213.393 15.212 213.909 16.796 214.941 17.972C215.973 19.124 217.401 19.7 219.225 19.7ZM2.27615 41.768C1.90415 41.768 1.59215 41.642 1.34015 41.39C1.08815 41.138 0.962149 40.826 0.962149 40.454C0.962149 40.082 1.08815 39.77 1.34015 39.518C1.59215 39.266 1.90415 39.14 2.27615 39.14C2.63615 39.14 2.94215 39.266 3.19415 39.518C3.44615 39.77 3.57215 40.082 3.57215 40.454C3.57215 40.826 3.44615 41.138 3.19415 41.39C2.94215 41.642 2.63615 41.768 2.27615 41.768ZM3.28415 43.082V53H1.23215V43.082H3.28415ZM20.7022 42.92C21.4822 42.92 22.1782 43.082 22.7902 43.406C23.4142 43.73 23.9002 44.21 24.2482 44.846C24.5962 45.482 24.7702 46.25 24.7702 47.15V53H22.7362V47.456C22.7362 46.568 22.5142 45.89 22.0702 45.422C21.6262 44.942 21.0202 44.702 20.2522 44.702C19.4842 44.702 18.8722 44.942 18.4162 45.422C17.9722 45.89 17.7502 46.568 17.7502 47.456V53H15.6982V43.082H17.7502V44.216C18.0862 43.808 18.5122 43.49 19.0282 43.262C19.5562 43.034 20.1142 42.92 20.7022 42.92ZM39.5017 44.756V50.246C39.5017 50.618 39.5857 50.888 39.7537 51.056C39.9337 51.212 40.2337 51.29 40.6537 51.29H41.9137V53H40.2937C39.3697 53 38.6617 52.784 38.1697 52.352C37.6777 51.92 37.4317 51.218 37.4317 50.246V44.756H36.2617V43.082H37.4317V40.616H39.5017V43.082H41.9137V44.756H39.5017ZM62.615 47.798C62.615 48.17 62.591 48.506 62.543 48.806H54.965C55.025 49.598 55.319 50.234 55.847 50.714C56.375 51.194 57.023 51.434 57.791 51.434C58.895 51.434 59.675 50.972 60.131 50.048H62.345C62.045 50.96 61.499 51.71 60.707 52.298C59.927 52.874 58.955 53.162 57.791 53.162C56.843 53.162 55.991 52.952 55.235 52.532C54.491 52.1 53.903 51.5 53.471 50.732C53.051 49.952 52.841 49.052 52.841 48.032C52.841 47.012 53.045 46.118 53.453 45.35C53.873 44.57 54.455 43.97 55.199 43.55C55.955 43.13 56.819 42.92 57.791 42.92C58.727 42.92 59.561 43.124 60.293 43.532C61.025 43.94 61.595 44.516 62.003 45.26C62.411 45.992 62.615 46.838 62.615 47.798ZM60.473 47.15C60.461 46.394 60.191 45.788 59.663 45.332C59.135 44.876 58.481 44.648 57.701 44.648C56.993 44.648 56.387 44.876 55.883 45.332C55.379 45.776 55.079 46.382 54.983 47.15H60.473ZM76.4063 44.522C76.7063 44.018 77.1023 43.628 77.5943 43.352C78.0983 43.064 78.6923 42.92 79.3763 42.92V45.044H78.8543C78.0503 45.044 77.4383 45.248 77.0183 45.656C76.6103 46.064 76.4063 46.772 76.4063 47.78V53H74.3543V43.082H76.4063V44.522ZM95.9865 42.92C96.7665 42.92 97.4625 43.082 98.0745 43.406C98.6985 43.73 99.1845 44.21 99.5325 44.846C99.8805 45.482 100.055 46.25 100.055 47.15V53H98.0205V47.456C98.0205 46.568 97.7985 45.89 97.3545 45.422C96.9105 44.942 96.3045 44.702 95.5365 44.702C94.7685 44.702 94.1565 44.942 93.7005 45.422C93.2565 45.89 93.0345 46.568 93.0345 47.456V53H90.9825V43.082H93.0345V44.216C93.3705 43.808 93.7965 43.49 94.3125 43.262C94.8405 43.034 95.3985 42.92 95.9865 42.92ZM111.708 47.996C111.708 47 111.912 46.118 112.32 45.35C112.74 44.582 113.304 43.988 114.012 43.568C114.732 43.136 115.524 42.92 116.388 42.92C117.168 42.92 117.846 43.076 118.422 43.388C119.01 43.688 119.478 44.066 119.826 44.522V43.082H121.896V53H119.826V51.524C119.478 51.992 119.004 52.382 118.404 52.694C117.804 53.006 117.12 53.162 116.352 53.162C115.5 53.162 114.72 52.946 114.012 52.514C113.304 52.07 112.74 51.458 112.32 50.678C111.912 49.886 111.708 48.992 111.708 47.996ZM119.826 48.032C119.826 47.348 119.682 46.754 119.394 46.25C119.118 45.746 118.752 45.362 118.296 45.098C117.84 44.834 117.348 44.702 116.82 44.702C116.292 44.702 115.8 44.834 115.344 45.098C114.888 45.35 114.516 45.728 114.228 46.232C113.952 46.724 113.814 47.312 113.814 47.996C113.814 48.68 113.952 49.28 114.228 49.796C114.516 50.312 114.888 50.708 115.344 50.984C115.812 51.248 116.304 51.38 116.82 51.38C117.348 51.38 117.84 51.248 118.296 50.984C118.752 50.72 119.118 50.336 119.394 49.832C119.682 49.316 119.826 48.716 119.826 48.032ZM136.705 44.756V50.246C136.705 50.618 136.789 50.888 136.957 51.056C137.137 51.212 137.437 51.29 137.857 51.29H139.117V53H137.497C136.573 53 135.865 52.784 135.373 52.352C134.881 51.92 134.635 51.218 134.635 50.246V44.756H133.465V43.082H134.635V40.616H136.705V43.082H139.117V44.756H136.705ZM151.772 41.768C151.4 41.768 151.088 41.642 150.836 41.39C150.584 41.138 150.458 40.826 150.458 40.454C150.458 40.082 150.584 39.77 150.836 39.518C151.088 39.266 151.4 39.14 151.772 39.14C152.132 39.14 152.438 39.266 152.69 39.518C152.942 39.77 153.068 40.082 153.068 40.454C153.068 40.826 152.942 41.138 152.69 41.39C152.438 41.642 152.132 41.768 151.772 41.768ZM152.78 43.082V53H150.728V43.082H152.78ZM169.497 53.162C168.561 53.162 167.715 52.952 166.959 52.532C166.203 52.1 165.609 51.5 165.177 50.732C164.745 49.952 164.529 49.052 164.529 48.032C164.529 47.024 164.751 46.13 165.195 45.35C165.639 44.57 166.245 43.97 167.013 43.55C167.781 43.13 168.639 42.92 169.587 42.92C170.535 42.92 171.393 43.13 172.161 43.55C172.929 43.97 173.535 44.57 173.979 45.35C174.423 46.13 174.645 47.024 174.645 48.032C174.645 49.04 174.417 49.934 173.961 50.714C173.505 51.494 172.881 52.1 172.089 52.532C171.309 52.952 170.445 53.162 169.497 53.162ZM169.497 51.38C170.025 51.38 170.517 51.254 170.973 51.002C171.441 50.75 171.819 50.372 172.107 49.868C172.395 49.364 172.539 48.752 172.539 48.032C172.539 47.312 172.401 46.706 172.125 46.214C171.849 45.71 171.483 45.332 171.027 45.08C170.571 44.828 170.079 44.702 169.551 44.702C169.023 44.702 168.531 44.828 168.075 45.08C167.631 45.332 167.277 45.71 167.013 46.214C166.749 46.706 166.617 47.312 166.617 48.032C166.617 49.1 166.887 49.928 167.427 50.516C167.979 51.092 168.669 51.38 169.497 51.38ZM191.397 42.92C192.177 42.92 192.873 43.082 193.485 43.406C194.109 43.73 194.595 44.21 194.943 44.846C195.291 45.482 195.465 46.25 195.465 47.15V53H193.431V47.456C193.431 46.568 193.209 45.89 192.765 45.422C192.321 44.942 191.715 44.702 190.947 44.702C190.179 44.702 189.567 44.942 189.111 45.422C188.667 45.89 188.445 46.568 188.445 47.456V53H186.393V43.082H188.445V44.216C188.781 43.808 189.207 43.49 189.723 43.262C190.251 43.034 190.809 42.92 191.397 42.92ZM207.119 47.996C207.119 47 207.323 46.118 207.731 45.35C208.151 44.582 208.715 43.988 209.423 43.568C210.143 43.136 210.935 42.92 211.799 42.92C212.579 42.92 213.257 43.076 213.833 43.388C214.421 43.688 214.889 44.066 215.237 44.522V43.082H217.307V53H215.237V51.524C214.889 51.992 214.415 52.382 213.815 52.694C213.215 53.006 212.531 53.162 211.763 53.162C210.911 53.162 210.131 52.946 209.423 52.514C208.715 52.07 208.151 51.458 207.731 50.678C207.323 49.886 207.119 48.992 207.119 47.996ZM215.237 48.032C215.237 47.348 215.093 46.754 214.805 46.25C214.529 45.746 214.163 45.362 213.707 45.098C213.251 44.834 212.759 44.702 212.231 44.702C211.703 44.702 211.211 44.834 210.755 45.098C210.299 45.35 209.927 45.728 209.639 46.232C209.363 46.724 209.225 47.312 209.225 47.996C209.225 48.68 209.363 49.28 209.639 49.796C209.927 50.312 210.299 50.708 210.755 50.984C211.223 51.248 211.715 51.38 212.231 51.38C212.759 51.38 213.251 51.248 213.707 50.984C214.163 50.72 214.529 50.336 214.805 49.832C215.093 49.316 215.237 48.716 215.237 48.032ZM231.774 39.68V53H229.722V39.68H231.774Z" fill="#F4F9FF"/>
</svg>
